{"asset":{"version":"2.0","generator":"babylon.js glTF exporter for Autodesk MAYA 2023.3 v20250113.1"},"scene":0,"scenes":[{"nodes":[0]}],"nodes":[{"mesh":0,"name":"k_logo"}],"meshes":[{"primitives":[{"attributes":{"POSITION":1,"TANGENT":2,"NORMAL":3,"TEXCOORD_0":4},"indices":0,"material":0}],"name":"k_logo"}],"accessors":[{"bufferView":0,"componentType":5123,"count":16056,"type":"SCALAR","name":"accessorIndices"},{"bufferView":1,"componentType":5126,"count":2894,"max":[0.249844342,0.293036461,0.195387632],"min":[-0.249844342,-0.293036461,-0.195387632],"type":"VEC3","name":"accessorPositions"},{"bufferView":2,"componentType":5126,"count":2894,"type":"VEC4","name":"accessorTangents"},{"bufferView":1,"byteOffset":34728,"componentType":5126,"count":2894,"type":"VEC3","name":"accessorNormals"},{"bufferView":3,"componentType":5126,"count":2894,"type":"VEC2","name":"accessorUVs"}],"bufferViews":[{"buffer":0,"byteLength":32112,"name":"bufferViewScalar"},{"buffer":0,"byteOffset":32112,"byteLength":69456,"byteStride":12,"name":"bufferViewFloatVec3"},{"buffer":0,"byteOffset":101568,"byteLength":46304,"byteStride":16,"name":"bufferViewFloatVec4"},{"buffer":0,"byteOffset":147872,"byteLength":23152,"byteStride":8,"name":"bufferViewFloatVec2"}],"buffers":[{"uri":"k_logo.bin","byteLength":171024}],"materials":[{"pbrMetallicRoughness":{"baseColorFactor":[0.5,0.5,0.5,1.0],"metallicFactor":0.0,"roughnessFactor":0.195977092},"name":"blinn1"}]}