{"asset":{"version":"2.0","generator":"babylon.js glTF exporter for Autodesk MAYA 2023.3 v20250113.1"},"scene":0,"scenes":[{"nodes":[0]}],"nodes":[{"children":[1],"translation":[0.24742426,-0.222547591,0.195109874],"name":"k_logo_grp"},{"mesh":0,"translation":[-0.24742426,0.222547591,-0.195109874],"name":"k_logo"}],"meshes":[{"primitives":[{"attributes":{"POSITION":1,"TANGENT":2,"NORMAL":3,"TEXCOORD_0":4},"indices":0,"material":0}],"name":"k_logo"}],"accessors":[{"bufferView":0,"componentType":5123,"count":16056,"type":"SCALAR","name":"accessorIndices"},{"bufferView":1,"componentType":5126,"count":3125,"max":[0.249844342,0.293036461,0.195387572],"min":[-0.249844342,-0.293036461,-0.195387632],"type":"VEC3","name":"accessorPositions"},{"bufferView":2,"componentType":5126,"count":3125,"type":"VEC4","name":"accessorTangents"},{"bufferView":1,"byteOffset":37500,"componentType":5126,"count":3125,"type":"VEC3","name":"accessorNormals"},{"bufferView":3,"componentType":5126,"count":3125,"type":"VEC2","name":"accessorUVs"}],"bufferViews":[{"buffer":0,"byteLength":32112,"name":"bufferViewScalar"},{"buffer":0,"byteOffset":32112,"byteLength":75000,"byteStride":12,"name":"bufferViewFloatVec3"},{"buffer":0,"byteOffset":107112,"byteLength":50000,"byteStride":16,"name":"bufferViewFloatVec4"},{"buffer":0,"byteOffset":157112,"byteLength":25000,"byteStride":8,"name":"bufferViewFloatVec2"}],"buffers":[{"uri":"k_logo.bin","byteLength":182112}],"materials":[{"pbrMetallicRoughness":{"baseColorTexture":{"index":1},"metallicFactor":0.0,"roughnessFactor":0.195977092},"normalTexture":{"index":0},"name":"blinn1"}],"textures":[{"sampler":0,"source":0,"name":"normal_thin2.png"},{"sampler":0,"source":1,"name":"diffuse.png"}],"images":[{"uri":"normal_thin2.png"},{"uri":"diffuse.png"}],"samplers":[{"magFilter":9729,"minFilter":9987}]}